<svg xmlns="http://www.w3.org/2000/svg" xmlns:xlink="http://www.w3.org/1999/xlink" width="300" zoomAndPan="magnify" viewBox="0 0 224.87999 225" height="300" preserveAspectRatio="xMidYMid meet" version="1.0"><defs><g/><clipPath id="e4b5dee8d9"><path d="M 77 69 L 142 69 L 142 157.476562 L 77 157.476562 Z M 77 69 " clip-rule="nonzero"/></clipPath><clipPath id="fc753a7dc8"><path d="M 75.558594 67.523438 L 141 67.523438 L 141 156 L 75.558594 156 Z M 75.558594 67.523438 " clip-rule="nonzero"/></clipPath><clipPath id="d1f63c4809"><path d="M 123 106 L 149.019531 106 L 149.019531 122 L 123 122 Z M 123 106 " clip-rule="nonzero"/></clipPath></defs><g clip-path="url(#e4b5dee8d9)"><path fill="#fdfdfd" d="M 119.230469 69.898438 L 119.074219 69.921875 C 117.785156 70.058594 115.636719 70.917969 112.625 72.5 C 111.609375 72.582031 110.769531 72.804688 110.09375 73.164062 C 102.890625 77.191406 99.152344 79.5 98.882812 80.085938 C 93.933594 84.117188 89.964844 89.179688 86.976562 95.273438 C 85.160156 99.648438 84.160156 102.40625 83.972656 103.546875 L 81.105469 116.660156 C 79.9375 123.601562 79.3125 127.648438 79.238281 128.796875 C 78.703125 133.734375 78.492188 136.839844 78.601562 138.125 C 78.191406 140.683594 78.300781 152.734375 78.003906 155.378906 C 77.835938 155.976562 77.675781 156.554688 77.527344 157.117188 C 78.046875 157.117188 78.535156 157.121094 78.953125 157.121094 C 99.703125 157.121094 120.429688 157.429688 141.214844 156.714844 C 141.210938 154.6875 140.648438 143.453125 140.464844 141.910156 L 136.722656 118.503906 C 137.148438 116.570312 136.953125 113.609375 136.136719 109.621094 L 136.621094 104.371094 C 136.527344 102.699219 136.265625 100.816406 135.832031 98.722656 C 135.976562 96.082031 135.863281 92.773438 135.488281 88.800781 C 139.136719 83.980469 140.6875 80.238281 140.140625 77.570312 C 139.492188 73.957031 137.234375 71.308594 133.359375 69.628906 C 132.097656 69.152344 130.777344 68.949219 129.398438 69.023438 C 128.277344 69.109375 126.0625 69.484375 122.757812 70.144531 C 121.691406 69.785156 120.515625 69.703125 119.230469 69.898438 Z M 119.230469 69.898438 " fill-opacity="1" fill-rule="nonzero"/></g><path fill="#ff3b41" d="M 110.632812 108 L 110.585938 108.007812 C 109.308594 108.359375 107.730469 109.335938 105.851562 110.933594 C 105.484375 111.273438 105.414062 111.746094 105.636719 112.359375 C 104.722656 113.015625 104.316406 113.335938 104.417969 113.324219 C 104.214844 113.535156 104.144531 113.882812 104.207031 114.359375 C 104.300781 114.765625 104.582031 115.058594 105.050781 115.234375 C 105.5 115.339844 105.894531 115.246094 106.246094 114.949219 C 106.230469 115.441406 106.398438 115.808594 106.746094 116.058594 C 106.601562 116.277344 106.566406 116.578125 106.644531 116.964844 C 106.757812 117.28125 106.910156 117.5 107.109375 117.625 C 107.203125 117.710938 107.390625 117.785156 107.664062 117.839844 L 108.429688 117.859375 C 108.773438 117.800781 109.007812 117.785156 109.128906 117.8125 C 109.316406 117.835938 109.523438 117.886719 109.742188 117.964844 C 110.339844 118.160156 111.199219 118.710938 112.3125 119.613281 C 112.898438 120.046875 113.535156 121.21875 114.226562 123.132812 C 114.515625 123.5625 114.882812 123.742188 115.328125 123.660156 C 115.707031 123.566406 115.980469 123.429688 116.152344 123.253906 L 119.769531 119.285156 C 120.214844 118.773438 120.535156 118.382812 120.734375 118.121094 C 120.96875 118.042969 121.210938 117.832031 121.46875 117.492188 C 122.371094 116.179688 122.871094 115.390625 122.960938 115.125 C 123.101562 114.699219 123.101562 114.363281 122.960938 114.109375 C 123.308594 113.5625 123.421875 113.082031 123.292969 112.667969 C 123.25 112.5 123.171875 112.347656 123.058594 112.199219 C 122.90625 112 122.730469 111.863281 122.535156 111.785156 C 122.484375 111.597656 122.398438 111.4375 122.273438 111.292969 C 122.46875 110.910156 122.476562 110.53125 122.292969 110.144531 C 122.179688 109.917969 122 109.738281 121.753906 109.609375 C 121.742188 109.332031 121.648438 109.085938 121.472656 108.867188 C 121.394531 108.75 121.222656 108.628906 120.953125 108.503906 C 120.722656 108.410156 120.460938 108.40625 120.160156 108.488281 C 119.585938 108.734375 118.851562 109.066406 117.953125 109.492188 L 113.824219 111.933594 C 113.664062 111.648438 113.5 111.472656 113.332031 111.398438 C 113.78125 110.957031 113.789062 110.363281 113.359375 109.625 C 113.136719 109.414062 112.988281 109.3125 112.917969 109.320312 C 112.675781 109.25 112.402344 109.261719 112.101562 109.351562 C 112.117188 108.90625 111.972656 108.519531 111.660156 108.195312 C 111.5625 108.113281 111.445312 108.050781 111.316406 108.015625 C 110.964844 107.960938 110.738281 107.953125 110.632812 108 Z M 110.632812 108 " fill-opacity="1" fill-rule="nonzero"/><g clip-path="url(#fc753a7dc8)"><path fill="#000000" d="M 99.164062 99.515625 C 105.3125 102.878906 113.082031 102.832031 122.464844 98.605469 C 129.378906 95.488281 134.964844 90.511719 137.265625 83.082031 C 139.386719 76.222656 137.570312 72.402344 132.855469 70.929688 C 130.582031 70.222656 127.535156 70.023438 123.6875 70.445312 C 110.441406 71.90625 99.707031 78.144531 91.636719 88.757812 C 87.277344 94.484375 83.851562 103.011719 81.59375 114.425781 C 81.03125 117.273438 80.457031 121.433594 79.863281 126.925781 L 79.863281 126.933594 C 79.863281 126.933594 79.863281 126.929688 79.863281 126.929688 C 78.800781 136.75 78.714844 145.757812 78.003906 155.378906 L 76 155.386719 C 75.832031 155.414062 75.6875 155.433594 75.5625 155.453125 C 76.277344 145.691406 76.371094 136.625 77.449219 126.664062 L 77.449219 126.660156 C 77.449219 126.660156 77.449219 126.664062 77.449219 126.664062 C 78.046875 121.148438 78.628906 116.90625 79.214844 113.949219 C 81.507812 102.34375 85.035156 93.414062 89.707031 87.273438 C 98.175781 76.132812 109.515625 69.550781 123.425781 68.019531 C 127.457031 67.578125 130.871094 67.757812 133.574219 68.601562 C 140.050781 70.617188 141.9375 76.199219 139.585938 83.804688 C 137.078125 91.917969 131.023438 97.425781 123.457031 100.832031 C 113.632812 105.257812 105.023438 105.496094 98.003906 101.660156 C 97.414062 101.335938 97.195312 100.59375 97.515625 100 C 97.839844 99.410156 98.574219 99.191406 99.164062 99.515625 Z M 99.164062 99.515625 " fill-opacity="1" fill-rule="nonzero"/></g><path fill="#000000" d="M 133.160156 91.984375 C 134.152344 98.507812 135.046875 104.765625 135.835938 110.765625 C 136.765625 118.925781 137.617188 125.898438 138.382812 131.691406 C 139.375 140.609375 139.421875 147.34375 139.550781 156.601562 C 140.371094 156.574219 141.183594 156.59375 141.984375 156.667969 C 141.859375 147.289062 141.800781 140.429688 140.792969 131.390625 L 140.789062 131.371094 C 140.027344 125.585938 139.179688 118.625 138.25 110.476562 L 138.246094 110.445312 C 137.421875 104.1875 136.488281 97.648438 135.445312 90.832031 C 135.402344 90.550781 135.265625 90.304688 135.074219 90.128906 C 134.847656 90.53125 134.566406 90.890625 134.238281 91.191406 C 133.902344 91.496094 133.542969 91.757812 133.160156 91.984375 Z M 133.160156 91.984375 " fill-opacity="1" fill-rule="nonzero"/><g clip-path="url(#d1f63c4809)"><path fill="#000000" d="M 136.136719 117.878906 C 136.203125 117.871094 136.265625 117.863281 136.324219 117.863281 C 136.257812 117.863281 136.191406 117.871094 136.125 117.882812 C 136.078125 117.890625 136.027344 117.902344 135.980469 117.917969 C 136.035156 117.902344 136.085938 117.890625 136.136719 117.878906 Z M 137.210938 106.753906 C 136.910156 106.808594 136.628906 106.972656 136.433594 107.246094 C 136.042969 107.792969 136.167969 108.554688 136.714844 108.949219 C 140.613281 111.75 143.765625 114.679688 146.171875 117.730469 C 146.1875 117.75 146.207031 117.769531 146.222656 117.789062 C 146.449219 118.042969 146.566406 118.230469 146.582031 118.34375 L 146.574219 118.347656 C 146.558594 118.375 146.523438 118.410156 146.472656 118.457031 C 146.320312 118.59375 146.089844 118.730469 145.78125 118.867188 L 145.777344 118.871094 C 145.507812 118.96875 145.226562 119.042969 144.925781 119.097656 C 144.351562 119.199219 143.722656 119.21875 143.035156 119.152344 C 140.347656 118.824219 138.238281 118.417969 136.707031 117.925781 C 136.613281 117.894531 136.523438 117.878906 136.429688 117.871094 L 136.425781 117.871094 C 135.871094 117.699219 134.054688 116.824219 130.976562 115.242188 L 127.371094 113.195312 C 127.355469 113.183594 127.335938 113.179688 127.320312 113.167969 C 126.808594 112.90625 125.949219 112.574219 124.746094 112.175781 C 124.550781 112.109375 124.347656 112.101562 124.15625 112.132812 C 123.726562 112.210938 123.355469 112.511719 123.210938 112.957031 C 123 113.59375 123.347656 114.285156 123.984375 114.496094 C 125.070312 114.855469 125.8125 115.136719 126.21875 115.34375 L 129.777344 117.367188 C 129.792969 117.375 129.808594 117.382812 129.820312 117.390625 C 133.214844 119.132812 135.238281 120.089844 135.886719 120.253906 C 135.972656 120.277344 136.050781 120.292969 136.132812 120.300781 L 136.128906 120.300781 C 137.789062 120.8125 139.992188 121.238281 142.742188 121.574219 C 142.75 121.574219 142.757812 121.578125 142.765625 121.578125 C 143.683594 121.671875 144.546875 121.644531 145.347656 121.503906 C 145.8125 121.417969 146.253906 121.296875 146.679688 121.136719 C 146.699219 121.128906 146.71875 121.121094 146.738281 121.113281 C 147.292969 120.867188 147.746094 120.585938 148.09375 120.273438 C 148.425781 119.976562 148.667969 119.644531 148.820312 119.28125 C 148.960938 118.945312 149.023438 118.597656 149.007812 118.230469 C 148.972656 117.558594 148.664062 116.886719 148.078125 116.214844 L 148.078125 116.21875 C 145.527344 112.988281 142.210938 109.90625 138.128906 106.964844 C 137.851562 106.765625 137.519531 106.699219 137.207031 106.757812 Z M 137.210938 106.753906 " fill-opacity="1" fill-rule="nonzero"/></g><path fill="#000000" d="M 81.839844 108.890625 C 81.683594 108.921875 81.527344 108.980469 81.386719 109.074219 C 80.824219 109.445312 80.667969 110.203125 81.035156 110.757812 L 81.035156 110.761719 L 81.039062 110.769531 C 83.648438 114.742188 85.050781 116.933594 85.253906 117.339844 L 85.25 117.339844 C 85.265625 117.378906 85.28125 117.417969 85.300781 117.453125 L 91.011719 128.238281 C 91.027344 128.265625 91.046875 128.296875 91.0625 128.324219 C 92.34375 130.324219 93.503906 131.457031 94.542969 131.722656 C 94.578125 131.730469 94.609375 131.738281 94.644531 131.746094 C 94.679688 131.75 94.71875 131.757812 94.753906 131.761719 C 95.152344 131.808594 95.539062 131.796875 95.914062 131.730469 C 97.28125 131.484375 98.503906 130.5 99.578125 128.773438 C 99.945312 128.238281 100.300781 127.601562 100.652344 126.863281 C 100.65625 126.855469 100.65625 126.851562 100.660156 126.84375 C 103.269531 121.089844 104.800781 117.800781 105.257812 116.980469 C 105.585938 116.390625 105.378906 115.648438 104.792969 115.320312 C 104.535156 115.175781 104.253906 115.136719 103.988281 115.183594 C 103.640625 115.246094 103.324219 115.457031 103.136719 115.789062 C 102.644531 116.667969 101.082031 120.019531 98.445312 125.832031 C 98.15625 126.449219 97.863281 126.96875 97.570312 127.398438 C 97.5625 127.410156 97.550781 127.425781 97.542969 127.441406 C 96.84375 128.570312 96.148438 129.199219 95.449219 129.324219 C 95.335938 129.34375 95.222656 129.351562 95.109375 129.34375 L 95.105469 129.34375 C 94.691406 129.203125 94.042969 128.453125 93.160156 127.082031 L 93.15625 127.082031 L 87.503906 116.414062 L 87.5 116.414062 C 87.484375 116.363281 87.460938 116.316406 87.4375 116.265625 C 87.199219 115.777344 85.742188 113.496094 83.074219 109.425781 L 83.070312 109.417969 C 82.792969 109 82.304688 108.804688 81.839844 108.886719 Z M 81.839844 108.890625 " fill-opacity="1" fill-rule="nonzero"/><path fill="#000000" d="M 106.945312 116.378906 C 106.960938 116.425781 106.976562 116.472656 106.984375 116.523438 L 106.980469 116.527344 C 106.972656 116.476562 106.957031 116.425781 106.941406 116.378906 Z M 108.152344 107.195312 C 108.113281 107.203125 108.074219 107.210938 108.035156 107.222656 C 106.445312 107.675781 105.28125 108.554688 104.542969 109.871094 L 104.539062 109.871094 C 103.742188 111.085938 103.386719 112.480469 103.464844 114.0625 C 103.511719 115.34375 103.941406 116.46875 104.761719 117.429688 L 104.757812 117.433594 C 104.839844 117.574219 104.949219 117.710938 105.085938 117.84375 C 105.617188 118.34375 107.253906 119.25 110 120.566406 L 109.996094 120.566406 C 110.296875 120.753906 110.65625 121.035156 111.078125 121.40625 C 111.984375 122.28125 112.722656 123.480469 113.289062 124.992188 C 113.496094 125.550781 114.070312 125.867188 114.636719 125.769531 C 114.710938 125.753906 114.78125 125.734375 114.851562 125.707031 C 115.480469 125.472656 115.800781 124.769531 115.566406 124.136719 C 114.863281 122.253906 113.914062 120.742188 112.71875 119.601562 C 112.707031 119.59375 112.695312 119.582031 112.683594 119.570312 C 112.121094 119.078125 111.625 118.699219 111.191406 118.4375 C 111.15625 118.417969 111.121094 118.398438 111.085938 118.378906 C 108.726562 117.25 107.3125 116.503906 106.847656 116.140625 L 106.84375 116.140625 C 106.800781 116.070312 106.75 116 106.691406 115.9375 C 106.1875 115.378906 105.921875 114.722656 105.898438 113.964844 C 105.898438 113.953125 105.898438 113.945312 105.898438 113.9375 C 105.84375 112.867188 106.082031 111.941406 106.609375 111.160156 C 106.628906 111.128906 106.644531 111.101562 106.664062 111.074219 C 107.0625 110.363281 107.714844 109.871094 108.617188 109.59375 L 108.621094 109.59375 C 109.59375 109.484375 110.476562 109.695312 111.273438 110.230469 L 111.269531 110.230469 C 112.027344 110.867188 112.417969 111.554688 112.441406 112.289062 C 112.464844 112.960938 113.027344 113.488281 113.699219 113.46875 C 113.757812 113.464844 113.816406 113.460938 113.871094 113.449219 C 114.457031 113.347656 114.894531 112.824219 114.875 112.207031 C 114.824219 110.714844 114.113281 109.40625 112.742188 108.285156 C 112.714844 108.261719 112.6875 108.242188 112.65625 108.21875 C 111.320312 107.3125 109.839844 106.96875 108.214844 107.183594 C 108.195312 107.1875 108.179688 107.1875 108.160156 107.191406 Z M 108.152344 107.195312 " fill-opacity="1" fill-rule="nonzero"/><path fill="#000000" d="M 118.160156 107.175781 C 117.023438 107.375 116.09375 107.832031 115.371094 108.539062 C 114.121094 109.757812 113.5625 111.203125 113.699219 112.871094 C 113.753906 113.542969 114.339844 114.046875 115.007812 113.992188 C 115.046875 113.988281 115.085938 113.984375 115.121094 113.976562 C 115.734375 113.867188 116.171875 113.308594 116.121094 112.675781 C 116.046875 111.769531 116.363281 110.972656 117.066406 110.289062 L 117.070312 110.285156 C 117.433594 109.929688 117.941406 109.691406 118.589844 109.578125 C 118.882812 109.523438 119.199219 109.496094 119.550781 109.496094 C 119.578125 109.496094 119.609375 109.492188 119.640625 109.492188 C 120.246094 109.441406 120.9375 109.765625 121.71875 110.472656 C 122.40625 111.136719 122.773438 111.945312 122.832031 112.898438 L 122.832031 112.902344 C 122.855469 113.726562 122.625 114.417969 122.140625 114.964844 C 122.132812 114.972656 122.125 114.980469 122.121094 114.988281 C 121.203125 116.085938 119.394531 117.90625 116.6875 120.453125 C 116.675781 120.464844 116.664062 120.476562 116.65625 120.488281 C 115.898438 121.253906 115.144531 122.300781 114.394531 123.625 C 114.066406 124.210938 114.269531 124.957031 114.851562 125.289062 C 115.109375 125.4375 115.394531 125.476562 115.664062 125.429688 C 116.007812 125.371094 116.324219 125.160156 116.507812 124.832031 C 117.140625 123.710938 117.753906 122.847656 118.351562 122.238281 L 118.347656 122.238281 C 121.109375 119.640625 122.980469 117.753906 123.964844 116.582031 C 124.878906 115.539062 125.3125 114.277344 125.261719 112.785156 C 125.261719 112.777344 125.261719 112.765625 125.257812 112.757812 C 125.164062 111.152344 124.535156 109.792969 123.371094 108.683594 C 123.363281 108.675781 123.355469 108.667969 123.347656 108.660156 C 122.066406 107.503906 120.785156 106.96875 119.5 107.054688 L 119.496094 107.058594 C 119.023438 107.0625 118.578125 107.101562 118.160156 107.179688 Z M 118.160156 107.175781 " fill-opacity="1" fill-rule="nonzero"/><path fill="#000000" d="M 101.152344 106.703125 C 100.710938 106.78125 100.328125 107.105469 100.195312 107.570312 C 99.664062 109.425781 99.753906 111.308594 100.460938 113.21875 C 100.46875 113.234375 100.476562 113.253906 100.484375 113.273438 C 101.398438 115.433594 102.601562 116.847656 104.085938 117.519531 C 104.316406 117.621094 104.5625 117.648438 104.796875 117.605469 C 105.179688 117.539062 105.519531 117.289062 105.691406 116.902344 C 105.96875 116.289062 105.695312 115.566406 105.082031 115.289062 C 104.183594 114.882812 103.402344 113.910156 102.742188 112.367188 L 102.738281 112.367188 C 102.214844 110.957031 102.144531 109.585938 102.53125 108.242188 C 102.714844 107.59375 102.34375 106.917969 101.699219 106.734375 C 101.515625 106.679688 101.328125 106.671875 101.152344 106.703125 Z M 101.152344 106.703125 " fill-opacity="1" fill-rule="nonzero"/><path fill="#000000" d="M 124.71875 103.960938 C 124.589844 103.984375 124.464844 104.027344 124.34375 104.09375 C 123.757812 104.417969 123.542969 105.164062 123.867188 105.753906 C 124.65625 107.191406 125.046875 108.429688 125.039062 109.46875 C 125.039062 109.488281 125.039062 109.503906 125.039062 109.519531 C 125.054688 110.003906 124.984375 110.542969 124.832031 111.148438 C 124.726562 111.527344 124.472656 112.089844 124.066406 112.835938 C 123.742188 113.425781 123.957031 114.167969 124.546875 114.492188 C 124.796875 114.632812 125.078125 114.671875 125.34375 114.621094 C 125.691406 114.558594 126.011719 114.34375 126.195312 114.011719 C 126.703125 113.082031 127.03125 112.332031 127.183594 111.765625 L 127.1875 111.75 C 127.394531 110.945312 127.488281 110.191406 127.46875 109.492188 C 127.480469 108.023438 126.992188 106.382812 125.996094 104.574219 C 125.738281 104.101562 125.21875 103.871094 124.722656 103.960938 Z M 124.71875 103.960938 " fill-opacity="1" fill-rule="nonzero"/><path fill="#000000" d="M 110.621094 88.929688 C 111.871094 88.441406 112.492188 87.027344 112.007812 85.769531 C 111.523438 84.515625 110.113281 83.890625 108.863281 84.378906 C 107.609375 84.867188 106.992188 86.28125 107.476562 87.539062 C 107.960938 88.796875 109.371094 89.417969 110.621094 88.929688 Z M 110.890625 87.988281 C 111.136719 87.890625 111.257812 87.613281 111.164062 87.363281 C 111.066406 87.117188 110.789062 86.992188 110.542969 87.089844 C 110.292969 87.1875 110.171875 87.464844 110.269531 87.714844 C 110.363281 87.960938 110.640625 88.085938 110.890625 87.988281 Z M 109.347656 86.796875 C 109.757812 86.636719 109.964844 86.171875 109.804688 85.757812 C 109.644531 85.34375 109.179688 85.140625 108.769531 85.300781 C 108.355469 85.460938 108.152344 85.925781 108.3125 86.339844 C 108.472656 86.753906 108.9375 86.957031 109.347656 86.796875 Z M 109.347656 86.796875 " fill-opacity="1" fill-rule="evenodd"/><path fill="#000000" d="M 126.65625 81.011719 C 127.90625 80.523438 128.527344 79.109375 128.042969 77.851562 C 127.558594 76.59375 126.148438 75.972656 124.898438 76.460938 C 123.644531 76.949219 123.027344 78.363281 123.511719 79.621094 C 123.996094 80.875 125.40625 81.5 126.65625 81.011719 Z M 126.925781 80.070312 C 127.171875 79.972656 127.292969 79.695312 127.199219 79.445312 C 127.105469 79.195312 126.824219 79.070312 126.578125 79.167969 C 126.332031 79.265625 126.207031 79.546875 126.304688 79.792969 C 126.398438 80.042969 126.679688 80.167969 126.925781 80.070312 Z M 125.382812 78.878906 C 125.792969 78.71875 126 78.253906 125.839844 77.839844 C 125.679688 77.425781 125.214844 77.222656 124.804688 77.382812 C 124.394531 77.542969 124.1875 78.007812 124.347656 78.421875 C 124.507812 78.835938 124.972656 79.039062 125.382812 78.878906 Z M 125.382812 78.878906 " fill-opacity="1" fill-rule="evenodd"/><path fill="#000000" d="M 132.253906 76.640625 C 133.21875 76.378906 134.214844 76.953125 134.476562 77.925781 C 134.738281 78.894531 134.164062 79.890625 133.199219 80.15625 C 132.234375 80.417969 131.238281 79.84375 130.976562 78.871094 C 130.714844 77.902344 131.289062 76.90625 132.253906 76.640625 Z M 132.253906 76.640625 " fill-opacity="1" fill-rule="evenodd"/><path fill="#ffffff" d="M 132.382812 79.023438 C 132.570312 78.972656 132.757812 79.082031 132.808594 79.269531 C 132.859375 79.457031 132.75 79.648438 132.566406 79.699219 C 132.378906 79.746094 132.1875 79.636719 132.136719 79.453125 C 132.085938 79.265625 132.195312 79.074219 132.382812 79.023438 Z M 132.382812 79.023438 " fill-opacity="1" fill-rule="evenodd"/><path fill="#ffffff" d="M 132.695312 77.105469 C 133.09375 76.996094 133.503906 77.234375 133.609375 77.632812 C 133.714844 78.03125 133.480469 78.441406 133.085938 78.550781 C 132.6875 78.65625 132.277344 78.421875 132.171875 78.023438 C 132.0625 77.625 132.296875 77.214844 132.695312 77.105469 Z M 132.695312 77.105469 " fill-opacity="1" fill-rule="evenodd"/><path fill="#000000" d="M 105.328125 85.714844 C 106.292969 85.453125 107.289062 86.027344 107.546875 86.996094 C 107.808594 87.96875 107.238281 88.96875 106.273438 89.226562 C 105.308594 89.492188 104.3125 88.917969 104.050781 87.949219 C 103.789062 86.976562 104.359375 85.980469 105.328125 85.714844 Z M 105.328125 85.714844 " fill-opacity="1" fill-rule="evenodd"/><path fill="#ffffff" d="M 105.769531 86.179688 C 106.167969 86.070312 106.578125 86.308594 106.683594 86.707031 C 106.789062 87.105469 106.554688 87.515625 106.160156 87.625 C 105.761719 87.734375 105.351562 87.496094 105.246094 87.097656 C 105.136719 86.699219 105.371094 86.289062 105.769531 86.183594 Z M 105.769531 86.179688 " fill-opacity="1" fill-rule="evenodd"/><path fill="#000000" d="M 127.550781 77.292969 C 128.554688 76.96875 129.632812 77.523438 129.957031 78.527344 C 130.277344 79.539062 129.726562 80.617188 128.722656 80.941406 C 127.71875 81.265625 126.644531 80.714844 126.320312 79.703125 C 125.996094 78.695312 126.546875 77.617188 127.550781 77.292969 Z M 127.550781 77.292969 " fill-opacity="1" fill-rule="evenodd"/><path fill="#ffffff" d="M 127.804688 79.792969 C 128 79.730469 128.207031 79.835938 128.269531 80.03125 C 128.332031 80.226562 128.226562 80.433594 128.03125 80.496094 C 127.835938 80.554688 127.628906 80.453125 127.566406 80.257812 C 127.503906 80.0625 127.613281 79.855469 127.804688 79.792969 Z M 127.804688 79.792969 " fill-opacity="1" fill-rule="evenodd"/><path fill="#ffffff" d="M 128.042969 77.757812 C 128.457031 77.625 128.898438 77.851562 129.03125 78.265625 C 129.164062 78.683594 128.9375 79.125 128.523438 79.257812 C 128.109375 79.390625 127.667969 79.164062 127.535156 78.75 C 127.402344 78.335938 127.628906 77.890625 128.042969 77.757812 Z M 128.042969 77.757812 " fill-opacity="1" fill-rule="evenodd"/><path fill="#000000" d="M 105.730469 85.546875 C 106.734375 85.222656 107.808594 85.773438 108.132812 86.785156 C 108.457031 87.792969 107.90625 88.871094 106.898438 89.195312 C 105.894531 89.519531 104.820312 88.964844 104.496094 87.960938 C 104.171875 86.949219 104.726562 85.871094 105.730469 85.546875 Z M 105.730469 85.546875 " fill-opacity="1" fill-rule="evenodd"/><path fill="#ffffff" d="M 105.984375 88.046875 C 106.175781 87.984375 106.382812 88.089844 106.445312 88.285156 C 106.507812 88.480469 106.402344 88.6875 106.207031 88.75 C 106.015625 88.8125 105.808594 88.707031 105.746094 88.511719 C 105.683594 88.316406 105.789062 88.109375 105.984375 88.046875 Z M 105.984375 88.046875 " fill-opacity="1" fill-rule="evenodd"/><path fill="#ffffff" d="M 106.21875 86.011719 C 106.632812 85.878906 107.074219 86.109375 107.207031 86.523438 C 107.339844 86.9375 107.113281 87.378906 106.699219 87.511719 C 106.289062 87.648438 105.847656 87.417969 105.710938 87.007812 C 105.578125 86.589844 105.808594 86.144531 106.21875 86.015625 Z M 106.21875 86.011719 " fill-opacity="1" fill-rule="evenodd"/><path fill="#000000" d="M 88.976562 86.605469 L 90.542969 91.625 L 92.796875 91.023438 L 91.90625 87.980469 L 100.960938 85.203125 L 101.617188 87.207031 L 102.828125 87.011719 L 103.292969 89.09375 L 104.589844 88.921875 L 104.792969 90.054688 L 106.277344 89.777344 L 106.34375 90.707031 L 114.753906 88.242188 L 114.34375 86.847656 L 115.292969 86.582031 L 115.113281 85.335938 L 116.207031 85.007812 L 115.960938 84.019531 L 117.09375 83.546875 L 116.832031 82.59375 L 117.78125 82.332031 L 117.246094 80.074219 L 119.964844 79.40625 L 120.425781 81.570312 L 121.949219 81.339844 L 122.214844 83.289062 L 123.417969 83.171875 L 123.808594 84.304688 L 124.863281 83.933594 L 125.269531 85.117188 L 133.746094 82.203125 L 133.25 80.882812 L 134.292969 80.570312 L 134.234375 79.667969 L 135.195312 79.347656 L 134.808594 78.238281 L 135.964844 77.648438 L 135.824219 76.554688 L 136.808594 76.308594 L 136.238281 74.441406 L 137.410156 73.902344 L 136.742188 71.578125 Z M 88.976562 86.605469 " fill-opacity="1" fill-rule="evenodd"/><path fill="#ffffff" d="M 109.554688 86.050781 L 110.605469 85.761719 L 110.894531 86.816406 L 109.84375 87.105469 Z M 109.554688 86.050781 " fill-opacity="1" fill-rule="evenodd"/><path fill="#ffffff" d="M 110.191406 84.796875 L 111.242188 84.507812 L 111.53125 85.558594 L 110.480469 85.847656 Z M 110.191406 84.796875 " fill-opacity="1" fill-rule="evenodd"/><path fill="#ffffff" d="M 110.976562 83.390625 L 112.023438 83.097656 L 112.3125 84.152344 L 111.265625 84.441406 Z M 110.976562 83.390625 " fill-opacity="1" fill-rule="evenodd"/><path fill="#ffffff" d="M 111.707031 82.09375 L 112.757812 81.800781 L 113.046875 82.855469 L 111.996094 83.148438 Z M 111.707031 82.09375 " fill-opacity="1" fill-rule="evenodd"/><path fill="#ffffff" d="M 111.527344 85.558594 L 112.578125 85.265625 L 112.867188 86.320312 L 111.820312 86.613281 Z M 111.527344 85.558594 " fill-opacity="1" fill-rule="evenodd"/><path fill="#ffffff" d="M 112.167969 84.304688 L 113.214844 84.011719 L 113.503906 85.066406 L 112.457031 85.355469 Z M 112.167969 84.304688 " fill-opacity="1" fill-rule="evenodd"/><path fill="#ffffff" d="M 112.949219 82.898438 L 114 82.605469 L 114.289062 83.660156 L 113.238281 83.949219 Z M 112.949219 82.898438 " fill-opacity="1" fill-rule="evenodd"/><path fill="#ffffff" d="M 113.683594 81.601562 L 114.734375 81.3125 L 115.023438 82.363281 L 113.972656 82.65625 Z M 113.683594 81.601562 " fill-opacity="1" fill-rule="evenodd"/><path fill="#ffffff" d="M 128.808594 80.183594 L 129.855469 79.894531 L 130.148438 80.949219 L 129.097656 81.238281 Z M 128.808594 80.183594 " fill-opacity="1" fill-rule="evenodd"/><path fill="#ffffff" d="M 129.445312 78.929688 L 130.496094 78.636719 L 130.785156 79.691406 L 129.734375 79.980469 Z M 129.445312 78.929688 " fill-opacity="1" fill-rule="evenodd"/><path fill="#ffffff" d="M 130.230469 77.523438 L 131.277344 77.230469 L 131.566406 78.285156 L 130.519531 78.578125 Z M 130.230469 77.523438 " fill-opacity="1" fill-rule="evenodd"/><path fill="#ffffff" d="M 130.960938 76.226562 L 132.011719 75.9375 L 132.300781 76.992188 L 131.25 77.28125 Z M 130.960938 76.226562 " fill-opacity="1" fill-rule="evenodd"/><path fill="#ffffff" d="M 130.78125 79.691406 L 131.832031 79.402344 L 132.121094 80.453125 L 131.070312 80.746094 Z M 130.78125 79.691406 " fill-opacity="1" fill-rule="evenodd"/><path fill="#ffffff" d="M 131.421875 78.433594 L 132.46875 78.144531 L 132.757812 79.199219 L 131.710938 79.488281 Z M 131.421875 78.433594 " fill-opacity="1" fill-rule="evenodd"/><path fill="#ffffff" d="M 132.203125 77.03125 L 133.253906 76.738281 L 133.542969 77.792969 L 132.492188 78.082031 Z M 132.203125 77.03125 " fill-opacity="1" fill-rule="evenodd"/><path fill="#ffffff" d="M 132.9375 75.734375 L 133.988281 75.441406 L 134.277344 76.496094 L 133.226562 76.789062 Z M 132.9375 75.734375 " fill-opacity="1" fill-rule="evenodd"/><g fill="#ffffff" fill-opacity="1"><g transform="translate(112.43999, 146.243583)"><g><path d="M 1.3125 0.046875 C 1.125 0.046875 0.976562 -0.00390625 0.875 -0.109375 C 0.769531 -0.210938 0.71875 -0.347656 0.71875 -0.515625 C 0.71875 -0.691406 0.769531 -0.832031 0.875 -0.9375 C 0.976562 -1.050781 1.125 -1.109375 1.3125 -1.109375 C 1.5 -1.109375 1.644531 -1.054688 1.75 -0.953125 C 1.863281 -0.847656 1.921875 -0.707031 1.921875 -0.53125 C 1.921875 -0.351562 1.863281 -0.210938 1.75 -0.109375 C 1.644531 -0.00390625 1.5 0.046875 1.3125 0.046875 Z M 1.3125 0.046875 "/></g></g></g></svg>